<mxfile host="drawio-plugin" modified="2024-01-22T20:48:34.514Z" agent="5.0 (Windows NT 6.2; Win64; x64) AppleWebKit/537.36 (KHTML, like Gecko) Chrome/104.0.5112.102 Safari/537.36" etag="crJImvr2A66plLUQdeSm" version="20.5.3" type="embed"><diagram name="Seite-1" id="ATSQ1cuJWjUBZ2_ZaInn"><mxGraphModel dx="556" dy="1055" grid="1" gridSize="10" guides="1" tooltips="1" connect="1" arrows="1" fold="1" page="1" pageScale="1" pageWidth="827" pageHeight="1169" math="0" shadow="0"><root><mxCell id="0"/><mxCell id="1" parent="0"/><mxCell id="T6TQ-6GPvZ9gWC0Iw6PN-4" style="edgeStyle=orthogonalEdgeStyle;rounded=0;orthogonalLoop=1;jettySize=auto;html=1;entryX=0.5;entryY=0;entryDx=0;entryDy=0;shape=link;" parent="1" source="T6TQ-6GPvZ9gWC0Iw6PN-1" target="T6TQ-6GPvZ9gWC0Iw6PN-3" edge="1"><mxGeometry relative="1" as="geometry"/></mxCell><mxCell id="T6TQ-6GPvZ9gWC0Iw6PN-1" value="" style="sketch=0;outlineConnect=0;fontColor=#232F3E;gradientColor=none;fillColor=#232F3D;strokeColor=none;dashed=0;verticalLabelPosition=bottom;verticalAlign=top;align=center;html=1;fontSize=12;fontStyle=0;aspect=fixed;pointerEvents=1;shape=mxgraph.aws4.document;" parent="1" vertex="1"><mxGeometry x="385.5" y="110" width="57" height="78" as="geometry"/></mxCell><mxCell id="T6TQ-6GPvZ9gWC0Iw6PN-2" value="&lt;font style=&quot;font-size: 15px;&quot;&gt;document.pipp&lt;/font&gt;" style="text;html=1;align=center;verticalAlign=middle;resizable=0;points=[];autosize=1;strokeColor=none;fillColor=none;" parent="1" vertex="1"><mxGeometry x="354" y="70" width="120" height="30" as="geometry"/></mxCell><mxCell id="T6TQ-6GPvZ9gWC0Iw6PN-10" style="edgeStyle=orthogonalEdgeStyle;rounded=0;orthogonalLoop=1;jettySize=auto;html=1;entryX=0.5;entryY=0;entryDx=0;entryDy=0;entryPerimeter=0;strokeColor=default;endArrow=none;endFill=0;" parent="1" source="T6TQ-6GPvZ9gWC0Iw6PN-3" target="T6TQ-6GPvZ9gWC0Iw6PN-9" edge="1"><mxGeometry relative="1" as="geometry"/></mxCell><mxCell id="T6TQ-6GPvZ9gWC0Iw6PN-13" style="edgeStyle=orthogonalEdgeStyle;rounded=0;orthogonalLoop=1;jettySize=auto;html=1;entryX=0.5;entryY=0;entryDx=0;entryDy=0;endArrow=none;endFill=0;" parent="1" source="T6TQ-6GPvZ9gWC0Iw6PN-3" target="T6TQ-6GPvZ9gWC0Iw6PN-12" edge="1"><mxGeometry relative="1" as="geometry"/></mxCell><mxCell id="T6TQ-6GPvZ9gWC0Iw6PN-14" style="edgeStyle=orthogonalEdgeStyle;rounded=0;orthogonalLoop=1;jettySize=auto;html=1;endArrow=none;endFill=0;" parent="1" source="T6TQ-6GPvZ9gWC0Iw6PN-3" target="T6TQ-6GPvZ9gWC0Iw6PN-11" edge="1"><mxGeometry relative="1" as="geometry"/></mxCell><mxCell id="T6TQ-6GPvZ9gWC0Iw6PN-3" value="FrontEndBridge" style="whiteSpace=wrap;html=1;" parent="1" vertex="1"><mxGeometry x="354" y="290" width="120" height="60" as="geometry"/></mxCell><mxCell id="T6TQ-6GPvZ9gWC0Iw6PN-5" value="WarningQueue" style="whiteSpace=wrap;html=1;" parent="1" vertex="1"><mxGeometry x="490" y="570" width="120" height="60" as="geometry"/></mxCell><mxCell id="T6TQ-6GPvZ9gWC0Iw6PN-7" style="edgeStyle=orthogonalEdgeStyle;rounded=0;orthogonalLoop=1;jettySize=auto;html=1;entryX=0.75;entryY=0;entryDx=0;entryDy=0;" parent="1" source="T6TQ-6GPvZ9gWC0Iw6PN-6" target="T6TQ-6GPvZ9gWC0Iw6PN-3" edge="1"><mxGeometry relative="1" as="geometry"><mxPoint x="490" y="320" as="targetPoint"/></mxGeometry></mxCell><mxCell id="T6TQ-6GPvZ9gWC0Iw6PN-8" value="compile" style="edgeLabel;html=1;align=center;verticalAlign=middle;resizable=0;points=[];" parent="T6TQ-6GPvZ9gWC0Iw6PN-7" vertex="1" connectable="0"><mxGeometry x="-0.012" y="2" relative="1" as="geometry"><mxPoint y="-2" as="offset"/></mxGeometry></mxCell><mxCell id="T6TQ-6GPvZ9gWC0Iw6PN-6" value="OnStart" style="rhombus;whiteSpace=wrap;html=1;" parent="1" vertex="1"><mxGeometry x="620" y="179" width="80" height="80" as="geometry"/></mxCell><mxCell id="T6TQ-6GPvZ9gWC0Iw6PN-9" value="tokens" style="shape=cylinder3;whiteSpace=wrap;html=1;boundedLbl=1;backgroundOutline=1;size=15;" parent="1" vertex="1"><mxGeometry x="384" y="470" width="60" height="80" as="geometry"/></mxCell><mxCell id="T6TQ-6GPvZ9gWC0Iw6PN-17" style="edgeStyle=orthogonalEdgeStyle;rounded=0;orthogonalLoop=1;jettySize=auto;html=1;entryX=1;entryY=0.5;entryDx=0;entryDy=0;entryPerimeter=0;" parent="1" source="T6TQ-6GPvZ9gWC0Iw6PN-11" target="T6TQ-6GPvZ9gWC0Iw6PN-9" edge="1"><mxGeometry relative="1" as="geometry"/></mxCell><mxCell id="T6TQ-6GPvZ9gWC0Iw6PN-18" value="getToken" style="edgeLabel;html=1;align=center;verticalAlign=middle;resizable=0;points=[];" parent="T6TQ-6GPvZ9gWC0Iw6PN-17" vertex="1" connectable="0"><mxGeometry y="3" relative="1" as="geometry"><mxPoint y="-3" as="offset"/></mxGeometry></mxCell><mxCell id="T6TQ-6GPvZ9gWC0Iw6PN-21" style="edgeStyle=orthogonalEdgeStyle;rounded=0;orthogonalLoop=1;jettySize=auto;html=1;entryX=0;entryY=0.5;entryDx=0;entryDy=0;endArrow=none;endFill=0;" parent="1" source="T6TQ-6GPvZ9gWC0Iw6PN-11" target="T6TQ-6GPvZ9gWC0Iw6PN-19" edge="1"><mxGeometry relative="1" as="geometry"/></mxCell><mxCell id="T6TQ-6GPvZ9gWC0Iw6PN-11" value="Parser" style="whiteSpace=wrap;html=1;" parent="1" vertex="1"><mxGeometry x="550" y="480" width="120" height="60" as="geometry"/></mxCell><mxCell id="T6TQ-6GPvZ9gWC0Iw6PN-15" style="edgeStyle=orthogonalEdgeStyle;rounded=0;orthogonalLoop=1;jettySize=auto;html=1;entryX=0;entryY=0.5;entryDx=0;entryDy=0;entryPerimeter=0;" parent="1" source="T6TQ-6GPvZ9gWC0Iw6PN-12" target="T6TQ-6GPvZ9gWC0Iw6PN-9" edge="1"><mxGeometry relative="1" as="geometry"/></mxCell><mxCell id="T6TQ-6GPvZ9gWC0Iw6PN-16" value="enqueueToken" style="edgeLabel;html=1;align=center;verticalAlign=middle;resizable=0;points=[];" parent="T6TQ-6GPvZ9gWC0Iw6PN-15" vertex="1" connectable="0"><mxGeometry x="0.0577" y="3" relative="1" as="geometry"><mxPoint x="-5" y="3" as="offset"/></mxGeometry></mxCell><mxCell id="T6TQ-6GPvZ9gWC0Iw6PN-12" value="Scanner" style="whiteSpace=wrap;html=1;" parent="1" vertex="1"><mxGeometry x="160" y="480" width="120" height="60" as="geometry"/></mxCell><mxCell id="T6TQ-6GPvZ9gWC0Iw6PN-23" style="edgeStyle=orthogonalEdgeStyle;rounded=0;orthogonalLoop=1;jettySize=auto;html=1;entryX=1;entryY=0.5;entryDx=0;entryDy=0;shape=link;exitX=0.5;exitY=1;exitDx=0;exitDy=0;" parent="1" source="T6TQ-6GPvZ9gWC0Iw6PN-19" target="T6TQ-6GPvZ9gWC0Iw6PN-22" edge="1"><mxGeometry relative="1" as="geometry"><Array as="points"><mxPoint x="750" y="690"/></Array></mxGeometry></mxCell><mxCell id="T6TQ-6GPvZ9gWC0Iw6PN-26" style="edgeStyle=orthogonalEdgeStyle;rounded=0;orthogonalLoop=1;jettySize=auto;html=1;entryX=1;entryY=0.5;entryDx=0;entryDy=0;" parent="1" source="T6TQ-6GPvZ9gWC0Iw6PN-19" target="T6TQ-6GPvZ9gWC0Iw6PN-5" edge="1"><mxGeometry relative="1" as="geometry"><Array as="points"><mxPoint x="730" y="600"/></Array></mxGeometry></mxCell><mxCell id="T6TQ-6GPvZ9gWC0Iw6PN-27" value="checkForWarnings" style="edgeLabel;html=1;align=center;verticalAlign=middle;resizable=0;points=[];" parent="T6TQ-6GPvZ9gWC0Iw6PN-26" vertex="1" connectable="0"><mxGeometry x="-0.0556" relative="1" as="geometry"><mxPoint x="-25" as="offset"/></mxGeometry></mxCell><mxCell id="T6TQ-6GPvZ9gWC0Iw6PN-19" value="AST" style="whiteSpace=wrap;html=1;" parent="1" vertex="1"><mxGeometry x="690" y="480" width="120" height="60" as="geometry"/></mxCell><mxCell id="T6TQ-6GPvZ9gWC0Iw6PN-25" style="edgeStyle=orthogonalEdgeStyle;rounded=0;orthogonalLoop=1;jettySize=auto;html=1;entryX=0;entryY=0.5;entryDx=0;entryDy=0;" parent="1" source="T6TQ-6GPvZ9gWC0Iw6PN-22" target="T6TQ-6GPvZ9gWC0Iw6PN-5" edge="1"><mxGeometry relative="1" as="geometry"><Array as="points"><mxPoint x="414" y="600"/></Array></mxGeometry></mxCell><mxCell id="T6TQ-6GPvZ9gWC0Iw6PN-28" value="checkForWarnings" style="edgeLabel;html=1;align=center;verticalAlign=middle;resizable=0;points=[];" parent="T6TQ-6GPvZ9gWC0Iw6PN-25" vertex="1" connectable="0"><mxGeometry x="-0.233" y="-1" relative="1" as="geometry"><mxPoint x="-1" y="12" as="offset"/></mxGeometry></mxCell><mxCell id="T6TQ-6GPvZ9gWC0Iw6PN-30" style="edgeStyle=orthogonalEdgeStyle;rounded=0;orthogonalLoop=1;jettySize=auto;html=1;entryX=0.5;entryY=0;entryDx=0;entryDy=0;" parent="1" source="T6TQ-6GPvZ9gWC0Iw6PN-22" target="T6TQ-6GPvZ9gWC0Iw6PN-29" edge="1"><mxGeometry relative="1" as="geometry"/></mxCell><mxCell id="T6TQ-6GPvZ9gWC0Iw6PN-31" value="createOnceProcessed" style="edgeLabel;html=1;align=center;verticalAlign=middle;resizable=0;points=[];" parent="T6TQ-6GPvZ9gWC0Iw6PN-30" vertex="1" connectable="0"><mxGeometry x="-0.2825" y="-2" relative="1" as="geometry"><mxPoint x="2" y="8" as="offset"/></mxGeometry></mxCell><mxCell id="T6TQ-6GPvZ9gWC0Iw6PN-22" value="Processor" style="whiteSpace=wrap;html=1;" parent="1" vertex="1"><mxGeometry x="354" y="660" width="120" height="60" as="geometry"/></mxCell><mxCell id="T6TQ-6GPvZ9gWC0Iw6PN-33" style="edgeStyle=orthogonalEdgeStyle;rounded=0;orthogonalLoop=1;jettySize=auto;html=1;entryX=0.5;entryY=0;entryDx=0;entryDy=0;" parent="1" source="T6TQ-6GPvZ9gWC0Iw6PN-29" target="T6TQ-6GPvZ9gWC0Iw6PN-32" edge="1"><mxGeometry relative="1" as="geometry"/></mxCell><mxCell id="T6TQ-6GPvZ9gWC0Iw6PN-62" value="writeMetaData" style="edgeLabel;html=1;align=center;verticalAlign=middle;resizable=0;points=[];" parent="T6TQ-6GPvZ9gWC0Iw6PN-33" vertex="1" connectable="0"><mxGeometry x="-0.2444" y="1" relative="1" as="geometry"><mxPoint x="-1" y="6" as="offset"/></mxGeometry></mxCell><mxCell id="T6TQ-6GPvZ9gWC0Iw6PN-67" style="edgeStyle=orthogonalEdgeStyle;rounded=0;orthogonalLoop=1;jettySize=auto;html=1;" parent="1" source="T6TQ-6GPvZ9gWC0Iw6PN-29" target="T6TQ-6GPvZ9gWC0Iw6PN-38" edge="1"><mxGeometry relative="1" as="geometry"/></mxCell><mxCell id="T6TQ-6GPvZ9gWC0Iw6PN-68" value="saveAndClose" style="edgeLabel;html=1;align=center;verticalAlign=middle;resizable=0;points=[];" parent="T6TQ-6GPvZ9gWC0Iw6PN-67" vertex="1" connectable="0"><mxGeometry x="-0.333" y="-1" relative="1" as="geometry"><mxPoint x="-1" y="-1" as="offset"/></mxGeometry></mxCell><mxCell id="T6TQ-6GPvZ9gWC0Iw6PN-29" value="DocumentCreator" style="whiteSpace=wrap;html=1;" parent="1" vertex="1"><mxGeometry x="354" y="810" width="120" height="60" as="geometry"/></mxCell><mxCell id="T6TQ-6GPvZ9gWC0Iw6PN-40" style="edgeStyle=orthogonalEdgeStyle;rounded=0;orthogonalLoop=1;jettySize=auto;html=1;" parent="1" source="T6TQ-6GPvZ9gWC0Iw6PN-32" target="T6TQ-6GPvZ9gWC0Iw6PN-38" edge="1"><mxGeometry relative="1" as="geometry"/></mxCell><mxCell id="T6TQ-6GPvZ9gWC0Iw6PN-41" value="writeMetaData" style="edgeLabel;html=1;align=center;verticalAlign=middle;resizable=0;points=[];" parent="T6TQ-6GPvZ9gWC0Iw6PN-40" vertex="1" connectable="0"><mxGeometry x="-0.3076" y="1" relative="1" as="geometry"><mxPoint x="17" y="1" as="offset"/></mxGeometry></mxCell><mxCell id="T6TQ-6GPvZ9gWC0Iw6PN-45" style="edgeStyle=orthogonalEdgeStyle;rounded=0;orthogonalLoop=1;jettySize=auto;html=1;entryX=0.5;entryY=0;entryDx=0;entryDy=0;" parent="1" source="T6TQ-6GPvZ9gWC0Iw6PN-32" target="T6TQ-6GPvZ9gWC0Iw6PN-44" edge="1"><mxGeometry relative="1" as="geometry"/></mxCell><mxCell id="T6TQ-6GPvZ9gWC0Iw6PN-46" value="createNewPage" style="edgeLabel;html=1;align=center;verticalAlign=middle;resizable=0;points=[];" parent="T6TQ-6GPvZ9gWC0Iw6PN-45" vertex="1" connectable="0"><mxGeometry x="-0.2809" y="4" relative="1" as="geometry"><mxPoint x="-4" y="8" as="offset"/></mxGeometry></mxCell><mxCell id="T6TQ-6GPvZ9gWC0Iw6PN-32" value="DocumentMetaDataWriter" style="whiteSpace=wrap;html=1;" parent="1" vertex="1"><mxGeometry x="324" y="960" width="180" height="60" as="geometry"/></mxCell><mxCell id="T6TQ-6GPvZ9gWC0Iw6PN-39" style="edgeStyle=orthogonalEdgeStyle;rounded=0;orthogonalLoop=1;jettySize=auto;html=1;shape=link;" parent="1" source="T6TQ-6GPvZ9gWC0Iw6PN-34" target="T6TQ-6GPvZ9gWC0Iw6PN-38" edge="1"><mxGeometry relative="1" as="geometry"/></mxCell><mxCell id="T6TQ-6GPvZ9gWC0Iw6PN-65" style="edgeStyle=orthogonalEdgeStyle;rounded=0;orthogonalLoop=1;jettySize=auto;html=1;entryX=0;entryY=0.5;entryDx=0;entryDy=0;" parent="1" source="T6TQ-6GPvZ9gWC0Iw6PN-34" target="T6TQ-6GPvZ9gWC0Iw6PN-29" edge="1"><mxGeometry relative="1" as="geometry"><Array as="points"><mxPoint x="170" y="1400"/><mxPoint x="170" y="840"/></Array></mxGeometry></mxCell><mxCell id="T6TQ-6GPvZ9gWC0Iw6PN-66" value="saveAndCloseDocument" style="edgeLabel;html=1;align=center;verticalAlign=middle;resizable=0;points=[];" parent="T6TQ-6GPvZ9gWC0Iw6PN-65" vertex="1" connectable="0"><mxGeometry x="0.0394" y="5" relative="1" as="geometry"><mxPoint y="37" as="offset"/></mxGeometry></mxCell><mxCell id="T6TQ-6GPvZ9gWC0Iw6PN-78" style="edgeStyle=orthogonalEdgeStyle;rounded=0;orthogonalLoop=1;jettySize=auto;html=1;entryX=0.5;entryY=0;entryDx=0;entryDy=0;entryPerimeter=0;shape=link;" parent="1" source="T6TQ-6GPvZ9gWC0Iw6PN-34" target="T6TQ-6GPvZ9gWC0Iw6PN-77" edge="1"><mxGeometry relative="1" as="geometry"><Array as="points"><mxPoint x="414" y="1460"/><mxPoint x="300" y="1460"/></Array></mxGeometry></mxCell><mxCell id="T6TQ-6GPvZ9gWC0Iw6PN-80" style="edgeStyle=orthogonalEdgeStyle;rounded=0;orthogonalLoop=1;jettySize=auto;html=1;shape=link;" parent="1" source="T6TQ-6GPvZ9gWC0Iw6PN-34" target="T6TQ-6GPvZ9gWC0Iw6PN-79" edge="1"><mxGeometry relative="1" as="geometry"><Array as="points"><mxPoint x="414" y="1460"/><mxPoint x="518" y="1460"/></Array></mxGeometry></mxCell><mxCell id="T6TQ-6GPvZ9gWC0Iw6PN-34" value="PageAssembler" style="whiteSpace=wrap;html=1;" parent="1" vertex="1"><mxGeometry x="354" y="1370" width="120" height="60" as="geometry"/></mxCell><mxCell id="T6TQ-6GPvZ9gWC0Iw6PN-37" value="&lt;font style=&quot;font-size: 15px;&quot;&gt;Document&lt;/font&gt;" style="text;html=1;align=center;verticalAlign=middle;resizable=0;points=[];autosize=1;strokeColor=none;fillColor=none;" parent="1" vertex="1"><mxGeometry x="1180" y="980" width="90" height="30" as="geometry"/></mxCell><mxCell id="T6TQ-6GPvZ9gWC0Iw6PN-38" value="" style="sketch=0;outlineConnect=0;fontColor=#232F3E;gradientColor=none;fillColor=#232F3D;strokeColor=none;dashed=0;verticalLabelPosition=bottom;verticalAlign=top;align=center;html=1;fontSize=12;fontStyle=0;aspect=fixed;pointerEvents=1;shape=mxgraph.aws4.documents2;" parent="1" vertex="1"><mxGeometry x="1100" y="951" width="67" height="78" as="geometry"/></mxCell><mxCell id="T6TQ-6GPvZ9gWC0Iw6PN-55" style="edgeStyle=orthogonalEdgeStyle;rounded=0;orthogonalLoop=1;jettySize=auto;html=1;" parent="1" source="T6TQ-6GPvZ9gWC0Iw6PN-44" target="T6TQ-6GPvZ9gWC0Iw6PN-47" edge="1"><mxGeometry relative="1" as="geometry"/></mxCell><mxCell id="T6TQ-6GPvZ9gWC0Iw6PN-61" value="handleBody" style="edgeLabel;html=1;align=center;verticalAlign=middle;resizable=0;points=[];" parent="T6TQ-6GPvZ9gWC0Iw6PN-55" vertex="1" connectable="0"><mxGeometry x="-0.1475" relative="1" as="geometry"><mxPoint as="offset"/></mxGeometry></mxCell><mxCell id="T6TQ-6GPvZ9gWC0Iw6PN-89" style="edgeStyle=orthogonalEdgeStyle;rounded=0;orthogonalLoop=1;jettySize=auto;html=1;" parent="1" source="T6TQ-6GPvZ9gWC0Iw6PN-44" target="T6TQ-6GPvZ9gWC0Iw6PN-77" edge="1"><mxGeometry relative="1" as="geometry"/></mxCell><mxCell id="T6TQ-6GPvZ9gWC0Iw6PN-90" value="set" style="edgeLabel;html=1;align=center;verticalAlign=middle;resizable=0;points=[];" parent="T6TQ-6GPvZ9gWC0Iw6PN-89" vertex="1" connectable="0"><mxGeometry x="-0.0856" y="1" relative="1" as="geometry"><mxPoint x="-1" y="-2" as="offset"/></mxGeometry></mxCell><mxCell id="T6TQ-6GPvZ9gWC0Iw6PN-91" style="edgeStyle=orthogonalEdgeStyle;rounded=0;orthogonalLoop=1;jettySize=auto;html=1;entryX=0;entryY=0.5;entryDx=0;entryDy=0;" parent="1" source="T6TQ-6GPvZ9gWC0Iw6PN-44" target="T6TQ-6GPvZ9gWC0Iw6PN-81" edge="1"><mxGeometry relative="1" as="geometry"/></mxCell><mxCell id="T6TQ-6GPvZ9gWC0Iw6PN-92" value="stampNewPage" style="edgeLabel;html=1;align=center;verticalAlign=middle;resizable=0;points=[];" parent="T6TQ-6GPvZ9gWC0Iw6PN-91" vertex="1" connectable="0"><mxGeometry x="-0.0226" relative="1" as="geometry"><mxPoint as="offset"/></mxGeometry></mxCell><mxCell id="T6TQ-6GPvZ9gWC0Iw6PN-93" style="edgeStyle=orthogonalEdgeStyle;rounded=0;orthogonalLoop=1;jettySize=auto;html=1;entryX=0.5;entryY=1;entryDx=0;entryDy=0;" parent="1" source="T6TQ-6GPvZ9gWC0Iw6PN-44" target="T6TQ-6GPvZ9gWC0Iw6PN-79" edge="1"><mxGeometry relative="1" as="geometry"><Array as="points"><mxPoint x="240" y="1139"/><mxPoint x="240" y="1574"/><mxPoint x="518" y="1574"/></Array></mxGeometry></mxCell><mxCell id="T6TQ-6GPvZ9gWC0Iw6PN-94" value="reset" style="edgeLabel;html=1;align=center;verticalAlign=middle;resizable=0;points=[];" parent="T6TQ-6GPvZ9gWC0Iw6PN-93" vertex="1" connectable="0"><mxGeometry x="-0.427" y="-3" relative="1" as="geometry"><mxPoint y="2" as="offset"/></mxGeometry></mxCell><mxCell id="T6TQ-6GPvZ9gWC0Iw6PN-44" value="PageCreator" style="whiteSpace=wrap;html=1;" parent="1" vertex="1"><mxGeometry x="354" y="1109" width="120" height="60" as="geometry"/></mxCell><mxCell id="T6TQ-6GPvZ9gWC0Iw6PN-50" style="edgeStyle=orthogonalEdgeStyle;rounded=0;orthogonalLoop=1;jettySize=auto;html=1;entryX=0;entryY=0.5;entryDx=0;entryDy=0;" parent="1" source="T6TQ-6GPvZ9gWC0Iw6PN-47" target="T6TQ-6GPvZ9gWC0Iw6PN-48" edge="1"><mxGeometry relative="1" as="geometry"/></mxCell><mxCell id="T6TQ-6GPvZ9gWC0Iw6PN-52" value="ifHeaderIsUsed" style="edgeLabel;html=1;align=center;verticalAlign=middle;resizable=0;points=[];" parent="T6TQ-6GPvZ9gWC0Iw6PN-50" vertex="1" connectable="0"><mxGeometry x="0.0172" y="-1" relative="1" as="geometry"><mxPoint as="offset"/></mxGeometry></mxCell><mxCell id="T6TQ-6GPvZ9gWC0Iw6PN-51" style="edgeStyle=orthogonalEdgeStyle;rounded=0;orthogonalLoop=1;jettySize=auto;html=1;entryX=0;entryY=0.5;entryDx=0;entryDy=0;" parent="1" source="T6TQ-6GPvZ9gWC0Iw6PN-47" target="T6TQ-6GPvZ9gWC0Iw6PN-49" edge="1"><mxGeometry relative="1" as="geometry"/></mxCell><mxCell id="T6TQ-6GPvZ9gWC0Iw6PN-54" value="ifTitleIsUsed" style="edgeLabel;html=1;align=center;verticalAlign=middle;resizable=0;points=[];" parent="T6TQ-6GPvZ9gWC0Iw6PN-51" vertex="1" connectable="0"><mxGeometry x="-0.0162" relative="1" as="geometry"><mxPoint as="offset"/></mxGeometry></mxCell><mxCell id="T6TQ-6GPvZ9gWC0Iw6PN-63" style="edgeStyle=orthogonalEdgeStyle;rounded=0;orthogonalLoop=1;jettySize=auto;html=1;entryX=0.5;entryY=0;entryDx=0;entryDy=0;" parent="1" source="T6TQ-6GPvZ9gWC0Iw6PN-47" target="T6TQ-6GPvZ9gWC0Iw6PN-34" edge="1"><mxGeometry relative="1" as="geometry"/></mxCell><mxCell id="T6TQ-6GPvZ9gWC0Iw6PN-64" value="commitLastPage" style="edgeLabel;html=1;align=center;verticalAlign=middle;resizable=0;points=[];" parent="T6TQ-6GPvZ9gWC0Iw6PN-63" vertex="1" connectable="0"><mxGeometry x="-0.1" y="1" relative="1" as="geometry"><mxPoint as="offset"/></mxGeometry></mxCell><mxCell id="T6TQ-6GPvZ9gWC0Iw6PN-47" value="BodyHandler" style="whiteSpace=wrap;html=1;" parent="1" vertex="1"><mxGeometry x="354" y="1230" width="120" height="60" as="geometry"/></mxCell><mxCell id="T6TQ-6GPvZ9gWC0Iw6PN-57" style="edgeStyle=orthogonalEdgeStyle;rounded=0;orthogonalLoop=1;jettySize=auto;html=1;entryX=0;entryY=0.5;entryDx=0;entryDy=0;" parent="1" source="T6TQ-6GPvZ9gWC0Iw6PN-48" target="T6TQ-6GPvZ9gWC0Iw6PN-56" edge="1"><mxGeometry relative="1" as="geometry"/></mxCell><mxCell id="T6TQ-6GPvZ9gWC0Iw6PN-58" value="renderLeftAligned" style="edgeLabel;html=1;align=center;verticalAlign=middle;resizable=0;points=[];" parent="T6TQ-6GPvZ9gWC0Iw6PN-57" vertex="1" connectable="0"><mxGeometry x="-0.5556" y="-3" relative="1" as="geometry"><mxPoint x="-3" y="37" as="offset"/></mxGeometry></mxCell><mxCell id="T6TQ-6GPvZ9gWC0Iw6PN-48" value="HeaderStamp" style="whiteSpace=wrap;html=1;" parent="1" vertex="1"><mxGeometry x="620" y="1180" width="120" height="60" as="geometry"/></mxCell><mxCell id="T6TQ-6GPvZ9gWC0Iw6PN-59" style="edgeStyle=orthogonalEdgeStyle;rounded=0;orthogonalLoop=1;jettySize=auto;html=1;entryX=0;entryY=0.5;entryDx=0;entryDy=0;" parent="1" source="T6TQ-6GPvZ9gWC0Iw6PN-49" target="T6TQ-6GPvZ9gWC0Iw6PN-56" edge="1"><mxGeometry relative="1" as="geometry"/></mxCell><mxCell id="T6TQ-6GPvZ9gWC0Iw6PN-60" value="renderCenterAligned" style="edgeLabel;html=1;align=center;verticalAlign=middle;resizable=0;points=[];" parent="T6TQ-6GPvZ9gWC0Iw6PN-59" vertex="1" connectable="0"><mxGeometry x="-0.0267" relative="1" as="geometry"><mxPoint x="-20" y="-17" as="offset"/></mxGeometry></mxCell><mxCell id="T6TQ-6GPvZ9gWC0Iw6PN-49" value="TitleStamp" style="whiteSpace=wrap;html=1;" parent="1" vertex="1"><mxGeometry x="620" y="1280" width="120" height="60" as="geometry"/></mxCell><mxCell id="T6TQ-6GPvZ9gWC0Iw6PN-84" style="edgeStyle=orthogonalEdgeStyle;rounded=0;orthogonalLoop=1;jettySize=auto;html=1;entryX=1;entryY=0.5;entryDx=0;entryDy=0;" parent="1" source="T6TQ-6GPvZ9gWC0Iw6PN-56" target="T6TQ-6GPvZ9gWC0Iw6PN-79" edge="1"><mxGeometry relative="1" as="geometry"><Array as="points"><mxPoint x="900" y="1522"/></Array></mxGeometry></mxCell><mxCell id="T6TQ-6GPvZ9gWC0Iw6PN-85" value="calculateNewYPosition" style="edgeLabel;html=1;align=center;verticalAlign=middle;resizable=0;points=[];" parent="T6TQ-6GPvZ9gWC0Iw6PN-84" vertex="1" connectable="0"><mxGeometry x="0.3997" y="-2" relative="1" as="geometry"><mxPoint as="offset"/></mxGeometry></mxCell><mxCell id="T6TQ-6GPvZ9gWC0Iw6PN-95" style="edgeStyle=orthogonalEdgeStyle;rounded=0;orthogonalLoop=1;jettySize=auto;html=1;entryX=0.5;entryY=1;entryDx=0;entryDy=0;entryPerimeter=0;" parent="1" source="T6TQ-6GPvZ9gWC0Iw6PN-56" target="T6TQ-6GPvZ9gWC0Iw6PN-77" edge="1"><mxGeometry relative="1" as="geometry"><Array as="points"><mxPoint x="900" y="1590"/><mxPoint x="300" y="1590"/></Array></mxGeometry></mxCell><mxCell id="T6TQ-6GPvZ9gWC0Iw6PN-96" value="addContentStream" style="edgeLabel;html=1;align=center;verticalAlign=middle;resizable=0;points=[];" parent="T6TQ-6GPvZ9gWC0Iw6PN-95" vertex="1" connectable="0"><mxGeometry x="0.1469" y="3" relative="1" as="geometry"><mxPoint x="66" y="-1" as="offset"/></mxGeometry></mxCell><mxCell id="T6TQ-6GPvZ9gWC0Iw6PN-56" value="TextRenderer" style="whiteSpace=wrap;html=1;" parent="1" vertex="1"><mxGeometry x="840" y="1230" width="120" height="60" as="geometry"/></mxCell><mxCell id="T6TQ-6GPvZ9gWC0Iw6PN-72" value="" style="rounded=0;whiteSpace=wrap;html=1;fillColor=none;dashed=1;" parent="1" vertex="1"><mxGeometry x="60" y="50" width="1310" height="510" as="geometry"/></mxCell><mxCell id="T6TQ-6GPvZ9gWC0Iw6PN-73" value="Front End" style="text;html=1;align=center;verticalAlign=middle;resizable=0;points=[];autosize=1;strokeColor=none;fillColor=none;fontSize=36;" parent="1" vertex="1"><mxGeometry x="1177" y="80" width="180" height="60" as="geometry"/></mxCell><mxCell id="T6TQ-6GPvZ9gWC0Iw6PN-74" value="" style="rounded=0;whiteSpace=wrap;html=1;fillColor=none;dashed=1;" parent="1" vertex="1"><mxGeometry x="60" y="560" width="1310" height="230" as="geometry"/></mxCell><mxCell id="T6TQ-6GPvZ9gWC0Iw6PN-75" value="Processing" style="text;html=1;align=center;verticalAlign=middle;resizable=0;points=[];autosize=1;strokeColor=none;fillColor=none;fontSize=36;" parent="1" vertex="1"><mxGeometry x="1157" y="585" width="200" height="60" as="geometry"/></mxCell><mxCell id="T6TQ-6GPvZ9gWC0Iw6PN-77" value="Current&lt;br&gt;Page" style="whiteSpace=wrap;html=1;shape=mxgraph.basic.document" parent="1" vertex="1"><mxGeometry x="270" y="1494" width="60" height="60" as="geometry"/></mxCell><mxCell id="T6TQ-6GPvZ9gWC0Iw6PN-86" style="edgeStyle=orthogonalEdgeStyle;rounded=0;orthogonalLoop=1;jettySize=auto;html=1;entryX=1;entryY=0.5;entryDx=0;entryDy=0;entryPerimeter=0;" parent="1" source="T6TQ-6GPvZ9gWC0Iw6PN-79" target="T6TQ-6GPvZ9gWC0Iw6PN-77" edge="1"><mxGeometry relative="1" as="geometry"/></mxCell><mxCell id="T6TQ-6GPvZ9gWC0Iw6PN-88" value="thenAddTextToPage" style="edgeLabel;html=1;align=center;verticalAlign=middle;resizable=0;points=[];" parent="T6TQ-6GPvZ9gWC0Iw6PN-86" vertex="1" connectable="0"><mxGeometry x="-0.0418" relative="1" as="geometry"><mxPoint as="offset"/></mxGeometry></mxCell><mxCell id="T6TQ-6GPvZ9gWC0Iw6PN-79" value="Current&lt;br&gt;Y-Pos" style="ellipse;whiteSpace=wrap;html=1;aspect=fixed;" parent="1" vertex="1"><mxGeometry x="486" y="1490" width="64" height="64" as="geometry"/></mxCell><mxCell id="T6TQ-6GPvZ9gWC0Iw6PN-82" style="edgeStyle=orthogonalEdgeStyle;rounded=0;orthogonalLoop=1;jettySize=auto;html=1;entryX=0;entryY=0.5;entryDx=0;entryDy=0;" parent="1" source="T6TQ-6GPvZ9gWC0Iw6PN-81" target="T6TQ-6GPvZ9gWC0Iw6PN-56" edge="1"><mxGeometry relative="1" as="geometry"/></mxCell><mxCell id="T6TQ-6GPvZ9gWC0Iw6PN-83" value="renderText" style="edgeLabel;html=1;align=center;verticalAlign=middle;resizable=0;points=[];" parent="T6TQ-6GPvZ9gWC0Iw6PN-82" vertex="1" connectable="0"><mxGeometry x="-0.2289" y="1" relative="1" as="geometry"><mxPoint as="offset"/></mxGeometry></mxCell><mxCell id="T6TQ-6GPvZ9gWC0Iw6PN-81" value="PageNumberStamp" style="whiteSpace=wrap;html=1;" parent="1" vertex="1"><mxGeometry x="620" y="1070" width="120" height="60" as="geometry"/></mxCell><mxCell id="T6TQ-6GPvZ9gWC0Iw6PN-97" value="" style="rounded=0;whiteSpace=wrap;html=1;fillColor=none;dashed=1;" parent="1" vertex="1"><mxGeometry x="60" y="790" width="1310" height="860" as="geometry"/></mxCell><mxCell id="T6TQ-6GPvZ9gWC0Iw6PN-98" value="Backend" style="text;html=1;align=center;verticalAlign=middle;resizable=0;points=[];autosize=1;strokeColor=none;fillColor=none;fontSize=36;" parent="1" vertex="1"><mxGeometry x="1187" y="830" width="160" height="60" as="geometry"/></mxCell></root></mxGraphModel></diagram></mxfile>